<svg xmlns="http://www.w3.org/2000/svg" viewBox="0 0 504 113.6">
    <defs>
        <style>
            .cls-1{fill:#f23c50;}.cls-2{fill:#ffc205;}.cls-3{fill:#ff8c05;}.cls-4{fill:#02589b;}.cls-5{fill:#e9f1df;}.cls-6{fill:#4ad9d9;}.cls-7{fill:#4ab9d9;}
        </style>
    </defs>
    <g id="Layer_2" data-name="Layer 2">
        <g id="Vrstva_2" data-name="Vrstva 2">
            <rect class="cls-1" x="80.55" y="30.23" width="20.31" height="82.42"
                  transform="translate(-19.17 35.97) rotate(-20.33)"/>
            <rect class="cls-2" y="0.13" width="20.31" height="113.47"/>
            <rect class="cls-3" y="27.61" width="20.31" height="3.91"/>
            <rect class="cls-3" y="34.45" width="20.31" height="3.91"/>
            <rect class="cls-4" x="22.47" y="24.02" width="20.31" height="89.58"/>
            <rect class="cls-5" x="22.47" y="37.16" width="20.31" height="3.91"/>
            <rect class="cls-5" x="22.47" y="44" width="20.31" height="3.91"/>
            <rect class="cls-6" x="45.05" y="10.88" width="20.31" height="102.72"/>
            <rect class="cls-7" x="45.05" y="27.61" width="20.31" height="3.91"/>
            <path d="M148.71,46.37a2.85,2.85,0,0,1-2.7-1.84L129.21,7.14A3.65,3.65,0,0,1,129,4a2.45,2.45,0,0,1,2.41-1.23,2.74,2.74,0,0,1,2.75,1.73L148.94,39h-.63l15-34.43a3,3,0,0,1,1.06-1.37A3.19,3.19,0,0,1,166,2.79,2.48,2.48,0,0,1,168.41,4a2.77,2.77,0,0,1,0,2.65l-17,37.89a3.21,3.21,0,0,1-1.06,1.36A2.69,2.69,0,0,1,148.71,46.37Z"/>
            <path d="M171.13,21.09c-1.8,0-2.69-.87-2.69-2.62s.89-2.62,2.69-2.62h19.55c1.8,0,2.7.87,2.7,2.62s-.9,2.62-2.7,2.62Zm.57,25.28c-1.79,0-2.69-.88-2.69-2.62a2.35,2.35,0,0,1,2.69-2.63h19.56A2.35,2.35,0,0,1,194,43.75c0,1.74-.9,2.62-2.69,2.62Zm1.72-1.06L169.53,42l19.49-25,3.84,3.34Z"/>
            <path d="M214.48,46.59a16,16,0,0,1-8-2,15.15,15.15,0,0,1-7.77-13.47,16.12,16.12,0,0,1,1.92-7.9,14.71,14.71,0,0,1,5.24-5.52,14.09,14.09,0,0,1,7.52-2A14.4,14.4,0,0,1,219.59,17a14,14,0,0,1,4.81,3.71V5.64a2.72,2.72,0,0,1,.83-2.07,3,3,0,0,1,2.1-.78,2.92,2.92,0,0,1,2.12.78,2.77,2.77,0,0,1,.8,2.07V31.08a15.2,15.2,0,0,1-7.74,13.47A15.85,15.85,0,0,1,214.48,46.59Zm0-5a10,10,0,0,0,5.22-1.37,9.74,9.74,0,0,0,3.61-3.76,10.94,10.94,0,0,0,1.32-5.36,10.76,10.76,0,0,0-1.32-5.36A9.89,9.89,0,0,0,219.7,22a10.24,10.24,0,0,0-14.08,3.71,10.56,10.56,0,0,0-1.34,5.36,10.74,10.74,0,0,0,1.34,5.36,9.89,9.89,0,0,0,3.67,3.76A10.06,10.06,0,0,0,214.48,41.57Z"/>
            <path d="M255.31,46.59a17.67,17.67,0,0,1-8.46-2,14.67,14.67,0,0,1-5.79-5.47,15.18,15.18,0,0,1-2.09-8,16.09,16.09,0,0,1,2-8.07,14.3,14.3,0,0,1,5.47-5.47,16,16,0,0,1,8-2,14.69,14.69,0,0,1,7.68,1.93,12.69,12.69,0,0,1,4.91,5.3,17.23,17.23,0,0,1,1.69,7.78,2.29,2.29,0,0,1-.75,1.76,2.63,2.63,0,0,1-1.89.7H243V28.62h22.94l-2.35,1.57a11.68,11.68,0,0,0-1.15-5,8.5,8.5,0,0,0-3.1-3.48,8.8,8.8,0,0,0-4.87-1.29,10.66,10.66,0,0,0-5.59,1.4,9,9,0,0,0-3.53,3.82,12.25,12.25,0,0,0-1.2,5.5,10.25,10.25,0,0,0,5.39,9.26,11.75,11.75,0,0,0,5.79,1.39,11.09,11.09,0,0,0,3.64-.64,11.4,11.4,0,0,0,3-1.48,3.34,3.34,0,0,1,1.87-.64,2.52,2.52,0,0,1,1.74.59,2.62,2.62,0,0,1,1,1.84,2,2,0,0,1-.92,1.73,16.09,16.09,0,0,1-4.85,2.45A17.52,17.52,0,0,1,255.31,46.59Zm-1.43-35.1a2.48,2.48,0,0,1-1.49-.44L246,6.92a2.93,2.93,0,0,1-1.37-2.4c0-.74.46-1.29,1.4-1.65s2.06-.08,3.36.81l4.53,3,4.53-3c1.45-1,2.61-1.25,3.47-.86a1.85,1.85,0,0,1,1.29,1.7,2.92,2.92,0,0,1-1.38,2.4l-6.37,4.13A2.72,2.72,0,0,1,253.88,11.49Z"/>
            <path d="M283.64,46.37A7.74,7.74,0,0,1,279.16,45a8.93,8.93,0,0,1-3-3.66A12.45,12.45,0,0,1,275,36.05V5.58a2.67,2.67,0,0,1,.81-2,2.82,2.82,0,0,1,2.06-.78,2.86,2.86,0,0,1,2.07.78,2.7,2.7,0,0,1,.8,2V36.05a6.58,6.58,0,0,0,.8,3.4,2.38,2.38,0,0,0,2.07,1.34h1.43a2.4,2.4,0,0,1,1.86.78,2.85,2.85,0,0,1,.72,2,2.37,2.37,0,0,1-1.09,2,4.72,4.72,0,0,1-2.81.78Z"/>
            <path d="M304.74,46.59a14.05,14.05,0,0,1-7.51-2A14.51,14.51,0,0,1,292,39a16.09,16.09,0,0,1-1.92-7.89,15.15,15.15,0,0,1,7.77-13.48,16,16,0,0,1,8.06-2,15.81,15.81,0,0,1,8,2,15.35,15.35,0,0,1,5.65,5.55,15.18,15.18,0,0,1,2.09,7.93h-2.23A16.09,16.09,0,0,1,317.5,39a14.51,14.51,0,0,1-5.25,5.52A14.08,14.08,0,0,1,304.74,46.59Zm1.15-5a10,10,0,0,0,5.21-1.37,9.78,9.78,0,0,0,3.62-3.74A10.84,10.84,0,0,0,316,31.14a11,11,0,0,0-1.32-5.39A9.85,9.85,0,0,0,311.1,22,10.2,10.2,0,0,0,297,25.75a10.7,10.7,0,0,0-1.35,5.39A10.55,10.55,0,0,0,297,36.46a9.84,9.84,0,0,0,3.67,3.74A10,10,0,0,0,305.89,41.57Zm.22-30.52a2.88,2.88,0,0,1-2.09-.81,2.74,2.74,0,0,1-.83-2,2.62,2.62,0,0,1,.69-1.89L309.5.84A2.84,2.84,0,0,1,311.56,0a2.79,2.79,0,0,1,2.12.84,2.83,2.83,0,0,1,.81,2.06A3.11,3.11,0,0,1,314.31,4a1.93,1.93,0,0,1-.63.89l-5.56,5.42A2.75,2.75,0,0,1,306.11,11.05Zm12.62,35.37a2.87,2.87,0,0,1-2.09-.81,2.68,2.68,0,0,1-.84-2V35l1.09-5.91,4.76,2V43.58a2.67,2.67,0,0,1-.83,2A2.87,2.87,0,0,1,318.73,46.42Z"/>
            <path d="M333.29,46.42a2.87,2.87,0,0,1-2.09-.81,2.71,2.71,0,0,1-.83-2V18.69a2.71,2.71,0,0,1,.83-2.06,3.24,3.24,0,0,1,4.22,0,2.76,2.76,0,0,1,.8,2.06V43.58a2.76,2.76,0,0,1-.8,2A2.88,2.88,0,0,1,333.29,46.42Zm23.57,0a2.87,2.87,0,0,1-2.09-.81,2.67,2.67,0,0,1-.83-2V29.85a9.92,9.92,0,0,0-1.21-5.19,7.45,7.45,0,0,0-3.24-3,10.65,10.65,0,0,0-4.67-1,9.86,9.86,0,0,0-4.36.95,8,8,0,0,0-3.09,2.54,6.05,6.05,0,0,0-1.15,3.65h-3.61a11.51,11.51,0,0,1,1.74-6.27,12.43,12.43,0,0,1,4.79-4.38A14.29,14.29,0,0,1,346,15.57a15.08,15.08,0,0,1,7.08,1.64A12.06,12.06,0,0,1,358,22a15.64,15.64,0,0,1,1.81,7.81V43.58a2.68,2.68,0,0,1-.84,2A2.87,2.87,0,0,1,356.86,46.42Z"/>
            <path d="M373,46.37a2.87,2.87,0,0,1-2.09-.81,2.74,2.74,0,0,1-.83-2V18.69a2.71,2.71,0,0,1,.83-2.06,3.24,3.24,0,0,1,4.22,0,2.76,2.76,0,0,1,.8,2.06V43.52a2.8,2.8,0,0,1-.8,2A2.88,2.88,0,0,1,373,46.37Zm.23-35.32a2.87,2.87,0,0,1-2.09-.81,2.74,2.74,0,0,1-.83-2A2.62,2.62,0,0,1,371,6.31L376.59.84A2.84,2.84,0,0,1,378.65,0a2.79,2.79,0,0,1,2.12.84,2.83,2.83,0,0,1,.81,2.06A3.11,3.11,0,0,1,381.4,4a1.93,1.93,0,0,1-.63.89l-5.56,5.42A2.77,2.77,0,0,1,373.2,11.05Z"/>
            <path d="M148.54,113.55a15.85,15.85,0,0,1-8-2,15.19,15.19,0,0,1-5.62-5.55A15.72,15.72,0,0,1,132.77,98V72.59a2.68,2.68,0,0,1,.83-2.06,3.23,3.23,0,0,1,4.21,0,2.73,2.73,0,0,1,.81,2.06V87.66A14.63,14.63,0,0,1,143.46,84a14.85,14.85,0,0,1,13.74.67,14.71,14.71,0,0,1,5.24,5.52,16.12,16.12,0,0,1,1.92,7.9,15.12,15.12,0,0,1-2.09,7.92,15.42,15.42,0,0,1-5.65,5.55A15.93,15.93,0,0,1,148.54,113.55Zm0-5a9.89,9.89,0,0,0,8.86-5.14A10.81,10.81,0,0,0,158.74,98a10.64,10.64,0,0,0-1.34-5.36A10.15,10.15,0,0,0,153.75,89a10.55,10.55,0,0,0-10.4,0,9.75,9.75,0,0,0-3.64,3.71A10.73,10.73,0,0,0,138.39,98a10.91,10.91,0,0,0,1.32,5.35,9.63,9.63,0,0,0,3.64,3.77A10,10,0,0,0,148.54,108.53Z"/>
            <path d="M186.27,113.6a14.91,14.91,0,0,1-7.08-1.64,12.08,12.08,0,0,1-4.94-4.83,15.64,15.64,0,0,1-1.8-7.81V85.59a2.74,2.74,0,0,1,.83-2,2.87,2.87,0,0,1,2.09-.81,2.91,2.91,0,0,1,2.1.81,2.74,2.74,0,0,1,.83,2V99.32a10.05,10.05,0,0,0,1.2,5.16,7.37,7.37,0,0,0,3.27,3,10.59,10.59,0,0,0,4.64,1,9.67,9.67,0,0,0,4.39-1,8,8,0,0,0,3.07-2.56,6.17,6.17,0,0,0,1.15-3.63h3.61a11.48,11.48,0,0,1-1.75,6.25,12.49,12.49,0,0,1-4.76,4.41A14.23,14.23,0,0,1,186.27,113.6Zm12.67-.27a2.87,2.87,0,0,1-2.09-.81,2.71,2.71,0,0,1-.83-2V85.59a2.68,2.68,0,0,1,.83-2.06,3.23,3.23,0,0,1,4.21,0,2.73,2.73,0,0,1,.81,2.06v24.89a2.77,2.77,0,0,1-.81,2A2.84,2.84,0,0,1,198.94,113.33Z"/>
            <path d="M226.41,113.55a16,16,0,0,1-8.06-2A15.15,15.15,0,0,1,210.58,98a16.12,16.12,0,0,1,1.92-7.9,14.66,14.66,0,0,1,5.25-5.52,14.05,14.05,0,0,1,7.51-2A14.34,14.34,0,0,1,231.51,84a14.07,14.07,0,0,1,4.82,3.71V72.59a2.68,2.68,0,0,1,.83-2.06,3.23,3.23,0,0,1,4.21,0,2.73,2.73,0,0,1,.81,2.06V98a15.13,15.13,0,0,1-2.1,7.92,15.32,15.32,0,0,1-5.64,5.55A15.88,15.88,0,0,1,226.41,113.55Zm0-5a10,10,0,0,0,5.22-1.37,9.84,9.84,0,0,0,3.61-3.77A10.91,10.91,0,0,0,236.56,98a10.73,10.73,0,0,0-1.32-5.36,10.2,10.2,0,0,0-17.69,0A10.54,10.54,0,0,0,216.2,98a10.71,10.71,0,0,0,1.35,5.35,9.92,9.92,0,0,0,3.67,3.77A10,10,0,0,0,226.41,108.53Z"/>
            <path d="M266.72,113.55a16.56,16.56,0,0,1-8.2-2,14.48,14.48,0,0,1-5.59-5.47,16.84,16.84,0,0,1,0-16.07,14.54,14.54,0,0,1,5.59-5.47,17.85,17.85,0,0,1,16.34,0A14.61,14.61,0,0,1,280.45,90a17,17,0,0,1,0,16.07,14.33,14.33,0,0,1-5.56,5.47A16.59,16.59,0,0,1,266.72,113.55Zm0-5a10.3,10.3,0,0,0,5.27-1.34,9.48,9.48,0,0,0,3.59-3.68,11.08,11.08,0,0,0,1.29-5.42,11.21,11.21,0,0,0-1.29-5.44A9.42,9.42,0,0,0,272,88.94a11.05,11.05,0,0,0-10.55,0,9.61,9.61,0,0,0-3.61,3.71,11,11,0,0,0-1.32,5.44,10.88,10.88,0,0,0,1.32,5.42,9.67,9.67,0,0,0,3.61,3.68A10.31,10.31,0,0,0,266.72,108.53Z"/>
            <path d="M304.39,113.6a14.91,14.91,0,0,1-7.08-1.64,12.06,12.06,0,0,1-4.93-4.83,15.64,15.64,0,0,1-1.81-7.81V85.59a2.74,2.74,0,0,1,.83-2,2.91,2.91,0,0,1,2.1-.81,2.87,2.87,0,0,1,2.09.81,2.74,2.74,0,0,1,.83,2V99.32a10,10,0,0,0,1.21,5.16,7.39,7.39,0,0,0,3.26,3,10.64,10.64,0,0,0,4.65,1,9.73,9.73,0,0,0,4.39-1A7.94,7.94,0,0,0,313,105a6.1,6.1,0,0,0,1.15-3.63h3.61a11.48,11.48,0,0,1-1.75,6.25,12.42,12.42,0,0,1-4.76,4.41A14.2,14.2,0,0,1,304.39,113.6Zm12.67-.27a2.88,2.88,0,0,1-2.09-.81,2.74,2.74,0,0,1-.83-2V85.59a2.71,2.71,0,0,1,.83-2.06,3.24,3.24,0,0,1,4.22,0,2.76,2.76,0,0,1,.8,2.06v24.89a2.8,2.8,0,0,1-.8,2A2.88,2.88,0,0,1,317.06,113.33Z"/>
            <path d="M344.53,113.55a16.22,16.22,0,0,1-8.17-2,15,15,0,0,1-5.62-5.52,15.37,15.37,0,0,1-2-7.9,15.88,15.88,0,0,1,2-8,14.34,14.34,0,0,1,5.51-5.5,16,16,0,0,1,8-2,15,15,0,0,1,6.2,1.26,14.8,14.8,0,0,1,5,3.76,2,2,0,0,1,.58,1.84,3,3,0,0,1-1.26,1.68,2.24,2.24,0,0,1-1.78.36,3.48,3.48,0,0,1-1.78-1,9.35,9.35,0,0,0-7-2.9,10.1,10.1,0,0,0-5.16,1.31,9.25,9.25,0,0,0-3.49,3.66,11.48,11.48,0,0,0-1.26,5.52,10.82,10.82,0,0,0,1.29,5.36,9.67,9.67,0,0,0,3.58,3.71,10.24,10.24,0,0,0,5.33,1.37,11.77,11.77,0,0,0,3.53-.48,8.39,8.39,0,0,0,2.78-1.48,3.48,3.48,0,0,1,1.89-.8,2.28,2.28,0,0,1,1.72.53,2.66,2.66,0,0,1,1.09,1.75,2,2,0,0,1-.69,1.76A14.8,14.8,0,0,1,344.53,113.55Z"/>
            <path d="M367.7,113.38a2.91,2.91,0,0,1-2.1-.81,2.74,2.74,0,0,1-.83-2V85.65a2.7,2.7,0,0,1,.83-2.06,3,3,0,0,1,2.1-.79,2.92,2.92,0,0,1,2.12.79,2.75,2.75,0,0,1,.8,2.06v24.89a2.79,2.79,0,0,1-.8,2A2.86,2.86,0,0,1,367.7,113.38Zm23.57,0a2.89,2.89,0,0,1-2.1-.81,2.74,2.74,0,0,1-.83-2V96.81a10,10,0,0,0-1.2-5.19,7.56,7.56,0,0,0-3.24-3,10.59,10.59,0,0,0-4.68-1,9.85,9.85,0,0,0-4.35,1,8,8,0,0,0-3.1,2.54,6.05,6.05,0,0,0-1.15,3.65H367a11.49,11.49,0,0,1,1.75-6.28,12.45,12.45,0,0,1,4.79-4.38,14.36,14.36,0,0,1,6.82-1.61,14.91,14.91,0,0,1,7.08,1.64A12,12,0,0,1,392.38,89a15.53,15.53,0,0,1,1.81,7.81v13.73a2.74,2.74,0,0,1-.83,2A2.88,2.88,0,0,1,391.27,113.38Z"/>
            <path d="M418.1,113.55a16.56,16.56,0,0,1-8.2-2,14.54,14.54,0,0,1-5.59-5.47,16.84,16.84,0,0,1,0-16.07,14.61,14.61,0,0,1,5.59-5.47,17.85,17.85,0,0,1,16.34,0A14.54,14.54,0,0,1,431.83,90a17,17,0,0,1,0,16.07,14.26,14.26,0,0,1-5.56,5.47A16.56,16.56,0,0,1,418.1,113.55Zm0-5a10.31,10.31,0,0,0,5.28-1.34,9.45,9.45,0,0,0,3.58-3.68,11.08,11.08,0,0,0,1.29-5.42A11.21,11.21,0,0,0,427,92.65a9.4,9.4,0,0,0-3.58-3.71,11.05,11.05,0,0,0-10.55,0,9.63,9.63,0,0,0-3.62,3.71,11,11,0,0,0-1.31,5.44,10.87,10.87,0,0,0,1.31,5.42,9.69,9.69,0,0,0,3.62,3.68A10.25,10.25,0,0,0,418.1,108.53Z"/>
            <path d="M454,113.55a22.27,22.27,0,0,1-7.43-1.2,14.29,14.29,0,0,1-5.3-3,2.38,2.38,0,0,1-.72-2,2.71,2.71,0,0,1,1.12-1.87,2.94,2.94,0,0,1,4.18.23,9.38,9.38,0,0,0,3.13,2,12.1,12.1,0,0,0,4.79.92,10,10,0,0,0,5.07-1.06,3.28,3.28,0,0,0,1.81-2.74,3.39,3.39,0,0,0-1.64-2.9c-1.12-.82-3.18-1.49-6.16-2q-5.79-1.11-8.4-3.35A6.91,6.91,0,0,1,441.84,91a6.69,6.69,0,0,1,1.72-4.72A10.61,10.61,0,0,1,448,83.5a17.33,17.33,0,0,1,5.62-.92,17.92,17.92,0,0,1,6.7,1.17A11.43,11.43,0,0,1,465,87a2.54,2.54,0,0,1,.74,1.87,2.11,2.11,0,0,1-1,1.64,2.87,2.87,0,0,1-2.18.39,4.07,4.07,0,0,1-2.12-1,7.86,7.86,0,0,0-3.1-1.84,13.15,13.15,0,0,0-3.84-.5,10,10,0,0,0-4.27.83,2.65,2.65,0,0,0-1.75,2.46,3.12,3.12,0,0,0,.55,1.81,4.46,4.46,0,0,0,2.15,1.45,27.53,27.53,0,0,0,4.7,1.26,26,26,0,0,1,6.79,2.12,9.06,9.06,0,0,1,3.59,3,7.22,7.22,0,0,1,1.09,3.94,8,8,0,0,1-1.41,4.63,9.59,9.59,0,0,1-4.13,3.29A16.49,16.49,0,0,1,454,113.55Z"/>
            <path d="M472.4,88.72a2.8,2.8,0,0,1-1.95-.67,2.19,2.19,0,0,1-.74-1.67,2.31,2.31,0,0,1,.74-1.79,2.8,2.8,0,0,1,1.95-.67h13.25a2.8,2.8,0,0,1,2,.67,2.28,2.28,0,0,1,.75,1.79,2.16,2.16,0,0,1-.75,1.67,2.8,2.8,0,0,1-2,.67Zm12.73,24.61A9.59,9.59,0,0,1,480,111.9a10.12,10.12,0,0,1-3.61-3.87A11.5,11.5,0,0,1,475,102.5V75.89a2.7,2.7,0,0,1,.8-2,2.86,2.86,0,0,1,2.07-.78,2.82,2.82,0,0,1,2.06.78,2.67,2.67,0,0,1,.81,2V102.5a5.62,5.62,0,0,0,1.26,3.74,3.9,3.9,0,0,0,3.09,1.51h1.95a2.29,2.29,0,0,1,1.75.78,2.85,2.85,0,0,1,.72,2,2.49,2.49,0,0,1-.95,2,3.64,3.64,0,0,1-2.43.79Z"/>
            <path d="M500.21,77.84a3.65,3.65,0,0,1-2.66-1.09,3.57,3.57,0,0,1,0-5.19,3.8,3.8,0,0,1,5.33,0,3.57,3.57,0,0,1,0,5.19A3.66,3.66,0,0,1,500.21,77.84Zm0,35.49a2.88,2.88,0,0,1-2.09-.81,2.74,2.74,0,0,1-.83-2V85.65a2.7,2.7,0,0,1,.83-2.06,3.21,3.21,0,0,1,4.22,0,2.75,2.75,0,0,1,.8,2.06v24.83a2.8,2.8,0,0,1-.8,2A2.88,2.88,0,0,1,500.21,113.33Z"/>
        </g>
    </g>
</svg>