<svg xmlns="http://www.w3.org/2000/svg" viewBox="0 0 501.32 113"><defs><style>.cls-1{fill:#f23c50;}.cls-2{fill:#ffc205;}.cls-3{fill:#ff8c05;}.cls-4{fill:#02589b;}.cls-5{fill:#e9f1df;}.cls-6{fill:#4ad9d9;}.cls-7{fill:#4ab9d9;}.cls-8{fill:#fff;}</style></defs><g id="Layer_2" data-name="Layer 2"><g id="Vrstva_2" data-name="Vrstva 2"><rect class="cls-1" x="80.12" y="30.07" width="20.2" height="81.98" transform="translate(-19.07 35.78) rotate(-20.33)"/><rect class="cls-2" y="0.13" width="20.2" height="112.87"/><rect class="cls-3" y="27.46" width="20.2" height="3.89"/><rect class="cls-3" y="34.26" width="20.2" height="3.89"/><rect class="cls-4" x="22.35" y="23.9" width="20.2" height="89.1"/><rect class="cls-5" x="22.35" y="36.96" width="20.2" height="3.89"/><rect class="cls-5" x="22.35" y="43.77" width="20.2" height="3.89"/><rect class="cls-6" x="44.81" y="10.83" width="20.2" height="102.17"/><rect class="cls-7" x="44.81" y="27.46" width="20.2" height="3.89"/><path class="cls-8" d="M147.92,46.12a2.81,2.81,0,0,1-2.68-1.83L128.52,7.1a3.6,3.6,0,0,1-.17-3.1,2.44,2.44,0,0,1,2.4-1.23,2.74,2.74,0,0,1,2.74,1.73l14.66,34.24h-.63L162.46,4.5a3,3,0,0,1,1.06-1.36,3.13,3.13,0,0,1,1.62-.37A2.47,2.47,0,0,1,167.51,4a2.73,2.73,0,0,1,0,2.63L150.6,44.29a3.29,3.29,0,0,1-1.06,1.36A2.72,2.72,0,0,1,147.92,46.12Z"/><path class="cls-8" d="M170.22,21c-1.79,0-2.68-.87-2.68-2.61s.89-2.61,2.68-2.61h19.45c1.79,0,2.68.87,2.68,2.61S191.46,21,189.67,21Zm.57,25.14c-1.79,0-2.68-.87-2.68-2.61s.89-2.61,2.68-2.61h19.45c1.79,0,2.68.87,2.68,2.61s-.89,2.61-2.68,2.61Zm1.71-1-3.88-3.33L188,16.82l3.82,3.33Z"/><path class="cls-8" d="M213.34,46.34a15.89,15.89,0,0,1-8-2,15.07,15.07,0,0,1-7.73-13.41,15.93,15.93,0,0,1,1.91-7.85,14.5,14.5,0,0,1,5.22-5.49,14,14,0,0,1,7.47-2,14.23,14.23,0,0,1,6.22,1.36,14,14,0,0,1,4.79,3.69v-15A2.68,2.68,0,0,1,224,3.55a3.2,3.2,0,0,1,4.19,0,2.76,2.76,0,0,1,.8,2.06v25.3a15.18,15.18,0,0,1-7.7,13.41A15.79,15.79,0,0,1,213.34,46.34Zm0-5A9.9,9.9,0,0,0,218.53,40a9.74,9.74,0,0,0,3.59-3.75,10.8,10.8,0,0,0,1.32-5.33,10.6,10.6,0,0,0-1.32-5.32,9.81,9.81,0,0,0-3.59-3.7,10.17,10.17,0,0,0-14,3.7,10.41,10.41,0,0,0-1.34,5.32,10.6,10.6,0,0,0,1.34,5.33,9.88,9.88,0,0,0,8.81,5.11Z"/><path class="cls-8" d="M254,46.34a17.44,17.44,0,0,1-8.41-2,14.52,14.52,0,0,1-5.76-5.44,15.13,15.13,0,0,1-2.09-8,16,16,0,0,1,2-8,14.17,14.17,0,0,1,5.45-5.44,16,16,0,0,1,8-2,14.58,14.58,0,0,1,7.65,1.92,12.61,12.61,0,0,1,4.88,5.27,17.09,17.09,0,0,1,1.68,7.74,2.31,2.31,0,0,1-.74,1.75,2.68,2.68,0,0,1-1.89.69h-23V28.47H264.5L262.16,30a11.4,11.4,0,0,0-1.14-5,8.49,8.49,0,0,0-3.08-3.47,8.81,8.81,0,0,0-4.85-1.28,10.67,10.67,0,0,0-5.56,1.39,9,9,0,0,0-3.5,3.8,12.15,12.15,0,0,0-1.2,5.47,10.41,10.41,0,0,0,1.42,5.44,10.28,10.28,0,0,0,3.94,3.77A11.64,11.64,0,0,0,254,41.57a12.54,12.54,0,0,0,6.62-2.11,3.26,3.26,0,0,1,1.85-.64,2.51,2.51,0,0,1,1.74.59,2.59,2.59,0,0,1,1,1.83,2,2,0,0,1-.92,1.72,15.9,15.9,0,0,1-4.82,2.44A17.61,17.61,0,0,1,254,46.34Zm-1.43-34.91A2.47,2.47,0,0,1,251,11l-6.39-4.11a2.89,2.89,0,0,1-1.36-2.38c0-.74.46-1.29,1.39-1.64a3.65,3.65,0,0,1,3.34.8l4.5,2.94L257,3.66c1.45-1,2.6-1.25,3.45-.86a1.85,1.85,0,0,1,1.29,1.7,2.9,2.9,0,0,1-1.37,2.38L254.07,11A2.78,2.78,0,0,1,252.52,11.43Z"/><path class="cls-8" d="M282.13,46.12a7.63,7.63,0,0,1-4.45-1.33,8.91,8.91,0,0,1-3-3.64,12.33,12.33,0,0,1-1.08-5.3V5.55a2.69,2.69,0,0,1,.8-2,3.1,3.1,0,0,1,4.11,0,2.68,2.68,0,0,1,.79,2v30.3a6.54,6.54,0,0,0,.8,3.39,2.35,2.35,0,0,0,2.06,1.33h1.42a2.42,2.42,0,0,1,1.86.78,2.86,2.86,0,0,1,.71,2,2.35,2.35,0,0,1-1.08,2,4.7,4.7,0,0,1-2.8.78Z"/><path class="cls-8" d="M303.12,46.34a14,14,0,0,1-7.48-2,14.5,14.5,0,0,1-5.21-5.5A15.93,15.93,0,0,1,288.51,31a15.12,15.12,0,0,1,7.73-13.4,16,16,0,0,1,8-2,15.78,15.78,0,0,1,8,2,15.26,15.26,0,0,1,5.62,5.52A15.09,15.09,0,0,1,319.94,31h-2.22a16,16,0,0,1-1.91,7.85,14.61,14.61,0,0,1-5.22,5.5A14,14,0,0,1,303.12,46.34Zm1.14-5A9.9,9.9,0,0,0,309.45,40,9.79,9.79,0,0,0,313,36.27a10.76,10.76,0,0,0,1.31-5.3A10.91,10.91,0,0,0,313,25.61a9.79,9.79,0,0,0-3.59-3.72,10,10,0,0,0-5.19-1.35,10.1,10.1,0,0,0-5.17,1.35,9.92,9.92,0,0,0-3.64,3.72A10.62,10.62,0,0,0,294.1,31a10.47,10.47,0,0,0,1.35,5.3,9.91,9.91,0,0,0,8.81,5.08ZM304.49,11a2.87,2.87,0,0,1-2.09-.81,2.69,2.69,0,0,1-.82-2,2.61,2.61,0,0,1,.68-1.89L307.85.83a2.85,2.85,0,0,1,2-.83A2.79,2.79,0,0,1,312,.83a2.84,2.84,0,0,1,.8,2.06,3,3,0,0,1-.17,1,2,2,0,0,1-.63.89l-5.53,5.38A2.74,2.74,0,0,1,304.49,11ZM317,46.18a2.86,2.86,0,0,1-2.08-.81,2.7,2.7,0,0,1-.83-2v-8.5L315.21,29l4.73,2V43.35a2.69,2.69,0,0,1-.82,2A2.88,2.88,0,0,1,317,46.18Z"/><path class="cls-8" d="M331.52,46.18a2.84,2.84,0,0,1-2.08-.81,2.7,2.7,0,0,1-.83-2V18.59a2.69,2.69,0,0,1,.83-2.05,3.2,3.2,0,0,1,4.19,0,2.74,2.74,0,0,1,.8,2.05V43.35a2.75,2.75,0,0,1-.8,2A2.83,2.83,0,0,1,331.52,46.18Zm23.44,0a2.86,2.86,0,0,1-2.08-.81,2.7,2.7,0,0,1-.83-2V29.69a10,10,0,0,0-1.19-5.16,7.52,7.52,0,0,0-3.23-3,10.59,10.59,0,0,0-4.65-1,9.89,9.89,0,0,0-4.33.94,8,8,0,0,0-3.08,2.53,6.05,6.05,0,0,0-1.14,3.63h-3.59a11.4,11.4,0,0,1,1.73-6.24,12.49,12.49,0,0,1,4.77-4.36,14.23,14.23,0,0,1,6.78-1.61,14.9,14.9,0,0,1,7.05,1.64,11.92,11.92,0,0,1,4.9,4.8,15.5,15.5,0,0,1,1.8,7.77V43.35a2.7,2.7,0,0,1-.83,2A2.84,2.84,0,0,1,355,46.18Z"/><path class="cls-8" d="M371,46.12a2.88,2.88,0,0,1-2.08-.8,2.74,2.74,0,0,1-.83-2V18.59a2.69,2.69,0,0,1,.83-2.05,3.2,3.2,0,0,1,4.19,0,2.74,2.74,0,0,1,.8,2.05v24.7a2.79,2.79,0,0,1-.8,2A2.87,2.87,0,0,1,371,46.12ZM371.22,11a2.84,2.84,0,0,1-2.08-.81,2.66,2.66,0,0,1-.83-2A2.65,2.65,0,0,1,369,6.27L374.58.83A2.87,2.87,0,0,1,376.64,0a2.82,2.82,0,0,1,2.11.83,2.88,2.88,0,0,1,.8,2.06,3,3,0,0,1-.18,1,2,2,0,0,1-.62.89l-5.54,5.38A2.72,2.72,0,0,1,371.22,11Z"/><path class="cls-8" d="M147.75,112.94a15.79,15.79,0,0,1-8-2,15,15,0,0,1-5.59-5.52,15.7,15.7,0,0,1-2.11-7.88V72.21a2.71,2.71,0,0,1,.83-2.06,3.23,3.23,0,0,1,4.19,0,2.76,2.76,0,0,1,.8,2.06v15a14.74,14.74,0,0,1,4.82-3.69,14.76,14.76,0,0,1,13.66.67,14.65,14.65,0,0,1,5.22,5.49,16,16,0,0,1,1.91,7.86,15.12,15.12,0,0,1-7.7,13.4A15.9,15.9,0,0,1,147.75,112.94Zm0-5a9.79,9.79,0,0,0,8.81-5.11,10.7,10.7,0,0,0,1.34-5.32,10.52,10.52,0,0,0-1.34-5.33,10.3,10.3,0,0,0-14-3.69A9.72,9.72,0,0,0,139,92.19a10.71,10.71,0,0,0-1.31,5.33,10.89,10.89,0,0,0,1.31,5.32,9.74,9.74,0,0,0,3.62,3.75A10,10,0,0,0,147.75,108Z"/><path class="cls-8" d="M185.28,113a14.93,14.93,0,0,1-7.05-1.64,11.92,11.92,0,0,1-4.9-4.8,15.5,15.5,0,0,1-1.8-7.77V85.14a2.74,2.74,0,0,1,.83-2,3.1,3.1,0,0,1,4.16,0,2.74,2.74,0,0,1,.83,2V98.79a10,10,0,0,0,1.2,5.14,7.33,7.33,0,0,0,3.25,3,10.64,10.64,0,0,0,4.62,1,9.7,9.7,0,0,0,4.36-.94,8,8,0,0,0,3.05-2.55,6.12,6.12,0,0,0,1.14-3.61h3.6a11.48,11.48,0,0,1-1.74,6.22,12.36,12.36,0,0,1-4.74,4.38A14.18,14.18,0,0,1,185.28,113Zm12.6-.28a2.88,2.88,0,0,1-2.08-.8,2.72,2.72,0,0,1-.83-2V85.14a2.67,2.67,0,0,1,.83-2,3.2,3.2,0,0,1,4.19,0,2.73,2.73,0,0,1,.8,2v24.75a2.77,2.77,0,0,1-.8,2A2.85,2.85,0,0,1,197.88,112.72Z"/><path class="cls-8" d="M225.2,112.94a15.92,15.92,0,0,1-8-2,15.07,15.07,0,0,1-7.73-13.4,16,16,0,0,1,1.91-7.86,14.5,14.5,0,0,1,5.22-5.49,14,14,0,0,1,7.47-2,14.37,14.37,0,0,1,6.22,1.36,14,14,0,0,1,4.79,3.69v-15a2.68,2.68,0,0,1,.83-2.06,3.23,3.23,0,0,1,4.19,0,2.76,2.76,0,0,1,.8,2.06V97.52a15.18,15.18,0,0,1-7.7,13.4A15.79,15.79,0,0,1,225.2,112.94Zm0-5a9.73,9.73,0,0,0,8.79-5.11,10.89,10.89,0,0,0,1.31-5.32A10.71,10.71,0,0,0,234,92.19a9.83,9.83,0,0,0-8.79-5,10,10,0,0,0-8.81,5,10.52,10.52,0,0,0-1.34,5.33,10.7,10.7,0,0,0,1.34,5.32A9.88,9.88,0,0,0,225.2,108Z"/><path class="cls-8" d="M265.3,112.94a16.43,16.43,0,0,1-8.16-2,14.43,14.43,0,0,1-5.56-5.43,16.83,16.83,0,0,1,0-16,14.53,14.53,0,0,1,5.56-5.44,17.76,17.76,0,0,1,16.26,0A14.53,14.53,0,0,1,279,89.55a16.94,16.94,0,0,1,0,16,14.29,14.29,0,0,1-5.53,5.43A16.43,16.43,0,0,1,265.3,112.94Zm0-5a10.25,10.25,0,0,0,5.25-1.33,9.38,9.38,0,0,0,3.56-3.67,10.89,10.89,0,0,0,1.28-5.38,11.09,11.09,0,0,0-1.28-5.41,9.36,9.36,0,0,0-3.56-3.69,11,11,0,0,0-10.5,0,9.57,9.57,0,0,0-3.59,3.69,10.89,10.89,0,0,0-1.31,5.41,10.69,10.69,0,0,0,1.31,5.38,9.59,9.59,0,0,0,3.59,3.67A10.19,10.19,0,0,0,265.3,108Z"/><path class="cls-8" d="M302.77,113a14.89,14.89,0,0,1-7-1.64,11.94,11.94,0,0,1-4.91-4.8A15.61,15.61,0,0,1,289,98.79V85.14a2.73,2.73,0,0,1,.82-2,3.12,3.12,0,0,1,4.17,0,2.73,2.73,0,0,1,.82,2V98.79a10,10,0,0,0,1.2,5.14,7.33,7.33,0,0,0,3.25,3,10.64,10.64,0,0,0,4.62,1,9.75,9.75,0,0,0,4.37-.94,8,8,0,0,0,3.05-2.55,6.12,6.12,0,0,0,1.14-3.61h3.59a11.48,11.48,0,0,1-1.74,6.22,12.4,12.4,0,0,1-4.73,4.38A14.22,14.22,0,0,1,302.77,113Zm12.61-.28a2.88,2.88,0,0,1-2.08-.8,2.68,2.68,0,0,1-.83-2V85.14a2.64,2.64,0,0,1,.83-2,3.2,3.2,0,0,1,4.19,0,2.73,2.73,0,0,1,.8,2v24.75a2.77,2.77,0,0,1-.8,2A2.87,2.87,0,0,1,315.38,112.72Z"/><path class="cls-8" d="M342.7,112.94a16.18,16.18,0,0,1-8.13-2,14.76,14.76,0,0,1-5.59-5.5,15.27,15.27,0,0,1-2-7.85,15.82,15.82,0,0,1,2-8,14.4,14.4,0,0,1,5.48-5.47,16,16,0,0,1,8-2,14.94,14.94,0,0,1,6.16,1.25,14.6,14.6,0,0,1,5,3.75,2,2,0,0,1,.57,1.83,2.89,2.89,0,0,1-1.25,1.66,2.22,2.22,0,0,1-1.77.36,3.47,3.47,0,0,1-1.77-1,9.29,9.29,0,0,0-7-2.88,9.93,9.93,0,0,0-5.13,1.3,9.17,9.17,0,0,0-3.48,3.64,11.35,11.35,0,0,0-1.25,5.49,10.83,10.83,0,0,0,1.28,5.33,9.63,9.63,0,0,0,3.56,3.69A10.14,10.14,0,0,0,342.7,108a12,12,0,0,0,3.51-.47A8.65,8.65,0,0,0,349,106a3.58,3.58,0,0,1,1.88-.81,2.32,2.32,0,0,1,1.72.53,2.68,2.68,0,0,1,1.08,1.75,2,2,0,0,1-.68,1.75A14.73,14.73,0,0,1,342.7,112.94Z"/><path class="cls-8" d="M365.74,112.78a2.84,2.84,0,0,1-2.08-.81,2.7,2.7,0,0,1-.83-2V85.19a2.69,2.69,0,0,1,.83-2,3.2,3.2,0,0,1,4.19,0,2.74,2.74,0,0,1,.8,2V110a2.75,2.75,0,0,1-.8,2A2.82,2.82,0,0,1,365.74,112.78Zm23.44,0a2.86,2.86,0,0,1-2.08-.81,2.7,2.7,0,0,1-.83-2V96.29a10,10,0,0,0-1.19-5.16,7.52,7.52,0,0,0-3.23-3,10.72,10.72,0,0,0-4.64-1,9.77,9.77,0,0,0-4.34,1,8,8,0,0,0-3.08,2.52,6.08,6.08,0,0,0-1.14,3.64h-3.59a11.44,11.44,0,0,1,1.74-6.25,12.36,12.36,0,0,1,4.76-4.35,14.13,14.13,0,0,1,6.79-1.61,14.89,14.89,0,0,1,7,1.63,12.06,12.06,0,0,1,4.91,4.8,15.61,15.61,0,0,1,1.79,7.77V110a2.69,2.69,0,0,1-.82,2A2.88,2.88,0,0,1,389.18,112.78Z"/><path class="cls-8" d="M415.88,112.94a16.43,16.43,0,0,1-8.16-2,14.43,14.43,0,0,1-5.56-5.43,16.76,16.76,0,0,1,0-16,14.53,14.53,0,0,1,5.56-5.44,17.76,17.76,0,0,1,16.26,0,14.6,14.6,0,0,1,5.56,5.44,16.94,16.94,0,0,1,0,16A14.31,14.31,0,0,1,424,111,16.39,16.39,0,0,1,415.88,112.94Zm0-5a10.18,10.18,0,0,0,5.24-1.33,9.47,9.47,0,0,0,3.57-3.67A11,11,0,0,0,426,97.57a11.2,11.2,0,0,0-1.28-5.41,9.45,9.45,0,0,0-3.57-3.69,11,11,0,0,0-10.49,0A9.57,9.57,0,0,0,407,92.16a10.89,10.89,0,0,0-1.32,5.41A10.7,10.7,0,0,0,407,103a9.59,9.59,0,0,0,3.59,3.67A10.19,10.19,0,0,0,415.88,108Z"/><path class="cls-8" d="M451.58,112.94a22.07,22.07,0,0,1-7.39-1.19,14.12,14.12,0,0,1-5.27-3,2.37,2.37,0,0,1-.71-2,2.62,2.62,0,0,1,1.11-1.86,3,3,0,0,1,2.25-.75,3.12,3.12,0,0,1,1.91,1,9,9,0,0,0,3.11,2,12,12,0,0,0,4.76.92,9.76,9.76,0,0,0,5-1.06,3.25,3.25,0,0,0,1.8-2.71,3.4,3.4,0,0,0-1.63-2.89q-1.68-1.22-6.13-2-5.76-1.11-8.36-3.33a6.89,6.89,0,0,1-2.59-5.44,6.67,6.67,0,0,1,1.71-4.69,10.37,10.37,0,0,1,4.39-2.77,17.2,17.2,0,0,1,5.59-.92,17.81,17.81,0,0,1,6.68,1.17,11.43,11.43,0,0,1,4.62,3.22,2.56,2.56,0,0,1,.74,1.86,2.16,2.16,0,0,1-1,1.63,2.84,2.84,0,0,1-2.17.39,4.12,4.12,0,0,1-2.11-1,7.76,7.76,0,0,0-3.08-1.83,13.35,13.35,0,0,0-3.82-.5,9.85,9.85,0,0,0-4.25.83,2.64,2.64,0,0,0-1.74,2.45,3.17,3.17,0,0,0,.54,1.8,4.47,4.47,0,0,0,2.14,1.44,27.63,27.63,0,0,0,4.68,1.25A26.27,26.27,0,0,1,459.2,97a8.93,8.93,0,0,1,3.56,3,7.11,7.11,0,0,1,1.08,3.91,8,8,0,0,1-1.39,4.61,9.55,9.55,0,0,1-4.11,3.27A16.38,16.38,0,0,1,451.58,112.94Z"/><path class="cls-8" d="M469.89,88.25a2.8,2.8,0,0,1-1.94-.67,2.15,2.15,0,0,1-.74-1.66,2.29,2.29,0,0,1,.74-1.78,2.8,2.8,0,0,1,1.94-.67h13.18a2.8,2.8,0,0,1,1.93.67,2.26,2.26,0,0,1,.75,1.78,2.13,2.13,0,0,1-.75,1.66,2.8,2.8,0,0,1-1.93.67Zm12.66,24.47a9.55,9.55,0,0,1-5.13-1.41,10,10,0,0,1-3.59-3.86,11.37,11.37,0,0,1-1.32-5.49V75.48a2.69,2.69,0,0,1,.8-2,3.13,3.13,0,0,1,4.11,0,2.69,2.69,0,0,1,.8,2V102a5.59,5.59,0,0,0,1.25,3.71,3.87,3.87,0,0,0,3.08,1.5h1.94a2.27,2.27,0,0,1,1.74.78,2.82,2.82,0,0,1,.71,2,2.48,2.48,0,0,1-.94,2,3.69,3.69,0,0,1-2.42.77Z"/><path class="cls-8" d="M497.55,77.42a3.68,3.68,0,0,1-2.65-1.08,3.55,3.55,0,0,1,0-5.16,3.8,3.8,0,0,1,5.31,0,3.55,3.55,0,0,1,0,5.16A3.7,3.7,0,0,1,497.55,77.42Zm0,35.3a2.89,2.89,0,0,1-2.08-.8,2.72,2.72,0,0,1-.83-2V85.19a2.69,2.69,0,0,1,.83-2,2.92,2.92,0,0,1,2.08-.78,2.88,2.88,0,0,1,2.11.78,2.7,2.7,0,0,1,.8,2v24.7a2.74,2.74,0,0,1-.8,2A2.85,2.85,0,0,1,497.55,112.72Z"/></g></g></svg>