<svg id="Layer_1" data-name="Layer 1" xmlns="http://www.w3.org/2000/svg" viewBox="0 0 110 92"><circle cx="51.55" cy="46" r="40.14" style="fill:#0b3d91"/><circle cx="49.18" cy="13.57" r="0.45" style="fill:#fff"/><circle cx="53.8" cy="14.17" r="0.45" style="fill:#fff"/><circle cx="59.86" cy="22.33" r="0.45" style="fill:#fff"/><circle cx="26.62" cy="64.33" r="0.45" style="fill:#fff"/><circle cx="27.79" cy="67.93" r="0.45" style="fill:#fff"/><circle cx="22.21" cy="64.87" r="0.34" style="fill:#fff"/><circle cx="40.51" cy="71.94" r="0.34" style="fill:#fff"/><circle cx="69.21" cy="65.98" r="0.34" style="fill:#fff"/><circle cx="77.55" cy="56.92" r="0.34" style="fill:#fff"/><circle cx="36.67" cy="24.96" r="0.34" style="fill:#fff"/><circle cx="45.85" cy="18.22" r="0.34" style="fill:#fff"/><circle cx="44.85" cy="17.56" r="0.34" style="fill:#fff"/><circle cx="43.95" cy="16.9" r="0.34" style="fill:#fff"/><circle cx="38.11" cy="26.7" r="0.34" style="fill:#fff"/><circle cx="51.63" cy="9.16" r="0.34" style="fill:#fff"/><circle cx="53.85" cy="18.88" r="0.34" style="fill:#fff"/><circle cx="50.35" cy="16.98" r="0.34" style="fill:#fff"/><circle cx="44.35" cy="19.56" r="0.34" style="fill:#fff"/><circle cx="70.81" cy="74.88" r="0.34" style="fill:#fff"/><circle cx="26.05" cy="66.61" r="0.34" style="fill:#fff"/><circle cx="49.51" cy="70.96" r="0.34" style="fill:#fff"/><circle cx="33.03" cy="66.34" r="0.34" style="fill:#fff"/><circle cx="35.95" cy="71.1" r="0.34" style="fill:#fff"/><circle cx="57.43" cy="68.1" r="0.34" style="fill:#fff"/><circle cx="69.27" cy="61.42" r="0.34" style="fill:#fff"/><circle cx="78.25" cy="65.52" r="0.34" style="fill:#fff"/><circle cx="81.31" cy="67.48" r="0.34" style="fill:#fff"/><circle cx="81.81" cy="62.14" r="0.34" style="fill:#fff"/><circle cx="37.17" cy="54.58" r="0.34" style="fill:#fff"/><circle cx="37.3" cy="62.32" r="0.45" style="fill:#fff"/><circle cx="40" cy="68.02" r="0.45" style="fill:#fff"/><circle cx="72.34" cy="62.08" r="0.45" style="fill:#fff"/><circle cx="83.98" cy="61.42" r="0.45" style="fill:#fff"/><circle cx="78.22" cy="58.96" r="0.45" style="fill:#fff"/><circle cx="72.34" cy="59.2" r="0.45" style="fill:#fff"/><path d="M60.21,13.29l1.12-.11-1.12-.06a.5.5,0,0,0-.42-.42l-.11-1.11-.06,1.12a.51.51,0,0,0-.39.43l-1.14.1,1.15.06a.48.48,0,0,0,.4.38l.1,1.15.06-1.14A.51.51,0,0,0,60.21,13.29Z" style="fill:#fff"/><path d="M41.33,25.75l1.11-.11-1.11-.06a.51.51,0,0,0-.43-.42l-.11-1.11-.06,1.12a.5.5,0,0,0-.38.43l-1.15.1,1.16.06a.48.48,0,0,0,.39.38l.1,1.15.07-1.15A.5.5,0,0,0,41.33,25.75Z" style="fill:#fff"/><path d="M83.16,58.68l1.12-.1-1.12-.07a.5.5,0,0,0-.42-.41L82.63,57l-.06,1.12a.5.5,0,0,0-.39.42L81,58.64l1.15.06a.5.5,0,0,0,.4.38l.1,1.15.06-1.15A.49.49,0,0,0,83.16,58.68Z" style="fill:#fff"/><path d="M37.54,75.91l1.12-.11-1.11-.06a.51.51,0,0,0-.43-.42L37,74.21,37,75.33a.5.5,0,0,0-.38.43l-1.15.1,1.16.06a.48.48,0,0,0,.39.38l.1,1.15.07-1.15A.48.48,0,0,0,37.54,75.91Z" style="fill:#fff"/><path d="M79.6,67.51l1.12-.11-1.11-.06a.51.51,0,0,0-.43-.42l-.11-1.11L79,66.93a.49.49,0,0,0-.38.42l-1.15.11,1.16.06a.49.49,0,0,0,.39.38l.1,1.15.07-1.15A.48.48,0,0,0,79.6,67.51Z" style="fill:#fff"/><path d="M61.07,36.38C56.4,38.2,51.85,39.82,48,41,40.2,43.46,18.85,50.08,6,58.42L7,58.84a78.73,78.73,0,0,1,17.88-7.38c5.34-1.68,22.6-5.72,30.42-7.92,2.64-.74,5.73-1.72,9-2.9-.76-1.06-1.57-2.13-2.41-3.19C61.64,37.09,61.36,36.73,61.07,36.38Zm5.7,7.86C65.64,45,64.69,45.62,64,46c-3.84,2.22-22.56,15-26.82,17.94S21.13,78,17.65,81.28l-.12,1.32a232.09,232.09,0,0,1,19.2-16c5.52-4.2,16.94-12,20.82-14.46q5.56-3.57,10.06-6.57l-.15-.25C67.24,45,67,44.62,66.77,44.24ZM84.31,25.72A178,178,0,0,1,61.87,36.07l.6.74q1.39,1.77,2.64,3.55a91.34,91.34,0,0,0,19.5-9.6c-2.72,2.58-11.73,9.31-17.23,13.07.29.46.56.92.83,1.38,8.32-5.57,13.92-9.67,17.18-12.41,4.5-3.78,14.76-12.24,18.66-23.58C97.21,17.92,89.12,22.9,84.31,25.72Z" style="fill:#fc3d21"/><path d="M46.38,55.94c-.88-1.11-2.1-2.61-3-3.76Q41.52,49.86,40,47.5l-1,.26c1.26,2,2.66,3.92,4.18,5.84,1.11,1.4,2.12,2.53,2.64,3.23l.59.87,1-.67C47,56.69,46.69,56.32,46.38,55.94Zm6.47,5.86c-.73-.68-2.5-1.83-4.33-3.56l-1.22.85c1.18,1.67,2.8,3.72,4.06,4.32C53.26,64.31,53.78,62.69,52.85,61.8Zm9.62-25C52,23.61,39.16,16.35,33.63,20.74,29.34,24.15,31.1,34.12,37,44.59l.91-.31c-6-10.2-7.61-19.68-3.56-22.9,5.09-4,17.37,3.24,27.56,16.07a75,75,0,0,1,5.53,7.91c6,10,7.86,19,3.71,22.62-1.28,1.13-5.16,1.57-10.25-.72-.07.09,0,.33.13.39,4.4,1.76,8.6,2.43,10.73.75C76.88,64.34,73,50,62.47,36.81Z" style="fill:#fff"/><path d="M17.47,38.38h6.72L29.83,48V40.48a3.23,3.23,0,0,0-1.44-2.1H33a3,3,0,0,0-1.2,2.1v11c0,.67,1,1.6,1.44,2H26.8l-5.73-9.61v7.56c0,.75.73,1.47,1.5,2.08H17.62a2.72,2.72,0,0,0,1.44-2c.06-.75,0-10.43,0-10.85C19.06,39.7,18.17,39,17.47,38.38Z" style="fill:#fff"/><path d="M78.94,53.42h8.94a2.33,2.33,0,0,1-1.35-1.48c-.3-.78-5-13.56-5-13.56h-3.4c-1,.69-2,1.43-3.1,2.2a.25.25,0,0,1,0,.08c-.15.9-2.81,10.53-3,11-.23.66-1.38,1.39-1.85,1.78H75a2.16,2.16,0,0,1-.78-1.66c.09-.6.36-1.8.36-1.8h5A9.86,9.86,0,0,1,80,51.64C80.12,52.26,79.5,52.94,78.94,53.42ZM75,48.07l1.68-5.49,2.22,5.49Zm-.76-9.14.74-.55h-1.3C73.82,38.5,74,38.69,74.25,38.93Z" style="fill:#fff"/><path d="M40.06,51.79c.09-.6.36-1.8.36-1.8h5a9.86,9.86,0,0,1,.48,1.65c.1.62-.53,1.31-1.08,1.79h7.87l.49-.33a3,3,0,0,1-.77-1.16c-.3-.78-5-13.56-5-13.56h-7.8c.37.35,1.45,1.28,1.29,2.28s-2.81,10.53-3,11c-.23.66-1.38,1.4-1.85,1.79h4.82A2.18,2.18,0,0,1,40.06,51.79Zm2.49-9.21,2.22,5.49h-3.9Z" style="fill:#fff"/><path d="M67.25,45.85Q65,47.32,62.6,48.91c.73.36,1.31.8,1.37,1.38.1,1.08-2.07,1.6-4,1.38a5,5,0,0,1-1.15-.29l-1.24.8-1.53,1v1.55a2.73,2.73,0,0,1,1.91-1.48c.28,0,1.27.9,5.35.67,2-.11,5.81-2.22,5.75-4.65A4.67,4.67,0,0,0,67.25,45.85ZM56,49.6v1.58l1.07-.71A8.33,8.33,0,0,1,56,49.6Zm9.83-4.75c-.38-.22-.76-.42-1.13-.59-1.92-.9-3.93-1.07-4.35-2.28-.3-.86.54-1.65,2.58-1.62A8,8,0,0,1,67.39,42V38.17c-.15.15-.81.9-1.41.78a26.62,26.62,0,0,0-5.37-.54,4.84,4.84,0,0,0-4.88,4.53c-.1,3.52,2.72,4.48,4.31,5l.55.18c1.53-1,2.73-1.75,3.44-2.16C64.51,45.73,65.13,45.33,65.85,44.85Z" style="fill:#fff"/></svg>