<svg id="Layer_1" data-name="Layer 1" xmlns="http://www.w3.org/2000/svg" viewBox="0 0 1200 800"><path d="M265.39,508.65c-13.89,2.44-28,3.17-42.64,5.12L178.17,383.19V519.37c-13.88,1.47-26.55,3.41-39.71,5.36V275.27h37l50.67,141.54V275.27h39.23Zm76.74-142c15.1,0,38.25-.73,52.13-.73v39c-17.29,0-37.51,0-52.13.73v58c22.9-1.46,45.8-3.41,68.94-4.14V497l-107.92,8.53V275.27H411.07v39H342.13ZM556,314.25H515.59v179.3c-13.16,0-26.32,0-39,.49V314.25H436.17v-39H556Zm63.34,49.69h53.35v39H619.37v88.44H581.12V275.27H690v39H619.37Zm134,93.31c22.17.49,44.58,2.19,66.26,3.41v38.49C784.79,497,750,494.77,714.38,494V275.27h39Zm99.15,44.58c12.43.74,25.58,1.47,38.25,2.93V275.27H852.51Zm209-226.56-49.46,118.64,49.46,130.82c-14.62-2-29.24-4.63-43.85-7.06l-28-72.11-28.5,66.26c-14.13-2.44-27.78-3.17-41.9-5.12l50.18-114.25L924.14,275.27H966l25.58,65.53,27.28-65.53Z" style="fill:#d81f26"/></svg>