<?xml version="1.0" standalone="no"?>
<!DOCTYPE svg PUBLIC "-//W3C//DTD SVG 20010904//EN"
 "http://www.w3.org/TR/2001/REC-SVG-20010904/DTD/svg10.dtd">
<svg version="1.0" xmlns="http://www.w3.org/2000/svg"
 width="700.000000pt" height="700.000000pt" viewBox="0 0 700.000000 700.000000"
 preserveAspectRatio="xMidYMid meet">
<metadata>
Created by potrace 1.11, written by Peter Selinger 2001-2013
</metadata>
<g transform="translate(0.000000,700.000000) scale(0.100000,-0.100000)"
fill="#000000" stroke="none">
<path d="M90 6880 c-4 -3 -7 -1527 -7 -3388 l0 -3382 602 0 c474 0 604 3 607
13 3 10 3 6723 -1 6752 -1 10 -1185 15 -1201 5z"/>
<path d="M2803 6242 l-33 -3 0 -3065 0 -3064 607 2 607 3 1 3058 c0 1790 -4
3061 -9 3064 -9 6 -1116 10 -1173 5z"/>
<path d="M1428 5452 c0 -4 -2 -1207 -2 -2674 l-2 -2668 606 0 605 0 0 2673 0
2672 -602 2 c-332 1 -604 -1 -605 -5z"/>
<path d="M4940 5046 c-135 -51 -383 -143 -552 -206 -170 -62 -308 -117 -308
-122 0 -10 236 -655 340 -928 16 -41 60 -160 99 -265 38 -104 112 -305 164
-445 91 -245 250 -673 307 -830 40 -110 157 -423 190 -510 15 -41 69 -187 120
-325 50 -137 95 -259 100 -270 5 -11 93 -247 195 -525 103 -278 187 -506 189
-507 1 -1 80 27 176 63 96 36 258 95 360 133 566 209 601 223 595 240 -4 9
-34 88 -66 176 -100 268 -170 456 -199 535 -15 41 -89 242 -165 445 -75 204
-175 474 -221 600 -47 127 -91 246 -99 265 -8 19 -89 238 -181 485 -91 248
-217 587 -279 755 -62 168 -184 496 -270 730 -87 234 -172 463 -189 510 -19
50 -38 86 -46 87 -8 0 -125 -40 -260 -91z"/>
</g>
</svg>
