<svg width="134" height="36" viewBox="0 0 134 36" fill="none" xmlns="http://www.w3.org/2000/svg">
<g clip-path="url(#clip0)">
<path d="M91.8738 8.2625C92.3958 8.2625 92.8278 7.8305 92.8278 7.3085V6.1205H89.8398V3.5105H88.2018C87.6798 3.5105 87.2478 3.9425 87.2478 4.4645V6.1205H86.7618C86.2398 6.1205 85.8078 6.5525 85.8078 7.0745V8.2625H87.2478V12.0785C87.2478 12.6905 87.2478 13.2485 87.2658 13.7345C87.2838 14.2205 87.4098 14.7065 87.6618 15.1745C87.9498 15.6785 88.3458 16.0385 88.8858 16.2725C89.4258 16.5065 90.0378 16.6145 90.7218 16.6325C91.4058 16.6505 92.1078 16.5965 92.8278 16.4525V15.3365C92.8278 14.7965 92.3778 14.3645 91.8378 14.3825C91.6038 14.3825 91.3698 14.3825 91.1538 14.3645C90.6498 14.3285 90.2898 14.1305 90.0558 13.7705C89.9298 13.5725 89.8758 13.3205 89.8578 12.9965C89.8398 12.6725 89.8398 12.3125 89.8398 11.9165V8.2625H91.8738Z" fill="#04121A"/>
<path d="M51.1218 2.6825H48.3498L43.3818 16.4525H45.4878C45.8838 16.4525 46.2438 16.2005 46.3878 15.8225L47.2158 13.5725H53.3538L54.1818 15.8225C54.3258 16.2005 54.6858 16.4525 55.0818 16.4525H57.1878L52.5978 3.7265C52.3818 3.1145 51.7878 2.6825 51.1218 2.6825ZM48.0978 11.2325L50.2938 5.3285L52.4898 11.2325H48.0978Z" fill="#04121A"/>
<path d="M70.9218 5.85046C68.7438 5.85046 67.3218 6.82246 66.5838 8.73046L68.1498 9.28846C68.5278 9.41446 68.9598 9.30646 69.2118 9.00046C69.5538 8.58646 69.9318 8.22646 70.8858 8.22646C72.0738 8.22646 72.5598 8.65846 72.6678 9.77446L69.4818 10.3145C66.5298 10.8005 66.1698 12.6185 66.1698 13.6085C66.1698 14.5985 66.9258 16.7405 69.7698 16.7405C71.2098 16.7405 72.2538 16.2185 72.9198 15.5705C72.9558 16.0745 73.3698 16.4525 73.8738 16.4525H75.2058V9.79246C75.2058 7.02046 73.4418 5.85046 70.9218 5.85046ZM70.1838 14.7065C69.1758 14.7065 68.6898 14.3645 68.6898 13.7345C68.6898 13.1045 69.1578 12.4205 70.7598 12.1505C71.6418 11.9885 72.3438 11.8625 72.7938 11.7905V12.4205C72.7938 13.7525 71.4618 14.7065 70.1838 14.7065Z" fill="#04121A"/>
<path d="M64.2438 6.12048C63.8478 6.12048 63.4878 6.37248 63.3438 6.75048L61.0038 13.1225L58.6638 6.75048C58.5198 6.37248 58.1598 6.12048 57.7638 6.12048H55.7658L59.7078 16.4525H62.3178L66.2418 6.12048H64.2438Z" fill="#04121A"/>
<path d="M85.2498 13.4645C85.2498 12.4205 84.7098 11.4845 83.9178 10.9445C83.8818 10.9265 83.8638 10.9085 83.8278 10.8905C83.8098 10.8725 83.7918 10.8725 83.7738 10.8545C83.6838 10.8005 83.5758 10.7465 83.4678 10.6925C83.0898 10.5125 82.6758 10.3505 82.6758 10.3505C82.5138 10.2785 82.3338 10.2245 82.1358 10.1525C80.3718 9.55852 79.5078 9.41452 79.5078 8.82052C79.5078 8.29852 80.1378 8.02852 80.8038 8.02852C81.2358 8.02852 81.8298 8.15452 82.3158 8.76652C82.3158 8.76652 82.3158 8.76652 82.3338 8.78452C82.3518 8.80252 82.3518 8.80252 82.3698 8.82052L82.3878 8.83852C82.5498 9.01852 82.8018 9.12652 83.0538 9.12652C83.1618 9.12652 83.2698 9.10852 83.3598 9.07252H83.3778L84.8178 8.56852C84.3138 6.91252 82.7838 5.83252 80.7318 5.83252C79.9398 5.83252 79.2738 5.95852 78.7518 6.17452C77.6898 6.57052 76.9518 7.59652 76.9518 8.78452C76.9518 9.91852 77.6178 10.8905 78.5898 11.3225C79.0578 11.5565 79.6158 11.7725 80.2818 11.9705C82.1358 12.5105 82.5858 12.8885 82.5858 13.5365C82.5858 13.6085 82.5678 13.6985 82.5678 13.7525C82.5318 13.8785 82.4598 14.0045 82.3698 14.0945C82.1178 14.3645 81.6318 14.4905 80.9838 14.4905C80.1918 14.4905 79.4898 14.1665 79.0038 13.3385C78.7698 12.9605 78.3018 12.7985 77.8698 12.9425L76.4298 13.4465C77.0238 15.1925 78.2298 16.7225 80.9838 16.7225C82.2438 16.7225 83.2338 16.4525 83.9358 15.9665C84.7278 15.4265 85.2498 14.5085 85.2498 13.4645Z" fill="#04121A"/>
<path d="M43.3637 33.0845H44.9657V27.3785H49.8617V25.7765H44.9657V21.6905H50.9417V20.0705H43.3637V33.0845Z" fill="#04121A"/>
<path d="M58.5198 23.7245C57.8178 23.2925 56.9718 23.0585 55.9998 23.0585C55.0458 23.0585 54.2178 23.2745 53.5158 23.7065C52.8138 24.1385 52.2738 24.7325 51.8778 25.5065C51.4998 26.2805 51.3018 27.1805 51.3018 28.1885C51.3018 29.1965 51.4998 30.0965 51.8778 30.8705C52.2558 31.6445 52.7958 32.2565 53.4978 32.6885C54.1998 33.1205 55.0278 33.3545 55.9998 33.3545C56.9718 33.3545 57.7998 33.1385 58.5018 32.7065C59.2038 32.2745 59.7438 31.6625 60.1218 30.8885C60.4998 30.1145 60.6978 29.2145 60.6978 28.2065C60.6978 27.1985 60.5178 26.3165 60.1398 25.5425C59.7618 24.7685 59.2218 24.1565 58.5198 23.7245ZM58.2498 30.8165C57.7458 31.4825 57.0078 31.8245 55.9998 31.8245C55.0278 31.8245 54.2718 31.5005 53.7678 30.8345C53.2638 30.1685 53.0118 29.2865 53.0118 28.2065C53.0118 27.5045 53.1198 26.8745 53.3358 26.3345C53.5518 25.7945 53.8758 25.3625 54.3258 25.0565C54.7578 24.7505 55.3158 24.5885 55.9998 24.5885C56.9898 24.5885 57.7458 24.9125 58.2498 25.5785C58.7538 26.2265 59.0058 27.1085 59.0058 28.2065C58.9878 29.2685 58.7538 30.1325 58.2498 30.8165Z" fill="#04121A"/>
<path d="M69.0137 28.4585C69.0137 29.0165 68.9417 29.5025 68.8157 29.9345C68.6897 30.3485 68.5097 30.7085 68.2757 30.9785C68.0417 31.2485 67.7537 31.4645 67.4297 31.5905C67.1057 31.7345 66.7277 31.8065 66.3317 31.8065C65.8277 31.8065 65.3957 31.6985 65.0537 31.5005C64.7117 31.3025 64.4417 31.0325 64.2437 30.6905C64.0457 30.3485 63.9017 29.9705 63.8117 29.5385C63.7217 29.1065 63.6857 28.6745 63.6857 28.2065V23.3285H62.0657V28.7105C62.0657 29.0705 62.1017 29.4665 62.1737 29.8985C62.2457 30.3125 62.3537 30.7265 62.5337 31.1405C62.6957 31.5365 62.9297 31.9145 63.2357 32.2385C63.5237 32.5625 63.9017 32.8325 64.3517 33.0305C64.8017 33.2285 65.3417 33.3365 65.9717 33.3365C66.7997 33.3365 67.5377 33.1565 68.1497 32.7965C68.5637 32.5445 68.9237 32.2205 69.2117 31.8245V33.0845H70.6517V23.3285H69.0317V28.4585H69.0137Z" fill="#04121A"/>
<path d="M80.8037 25.2725C80.6417 24.8765 80.4077 24.4985 80.1017 24.1745C79.8137 23.8505 79.4357 23.5805 78.9857 23.3825C78.5357 23.1845 77.9957 23.0765 77.3657 23.0765C76.5377 23.0765 75.7997 23.2565 75.1877 23.6165C74.7737 23.8685 74.4137 24.1925 74.1257 24.5885V23.3285H72.6857V33.0845H74.3057V27.9545C74.3057 27.3965 74.3777 26.8925 74.5037 26.4785C74.6297 26.0645 74.8097 25.7225 75.0437 25.4345C75.2777 25.1645 75.5657 24.9485 75.8897 24.8225C76.2137 24.6785 76.5917 24.6065 76.9877 24.6065C77.5097 24.6065 77.9417 24.7145 78.2657 24.9125C78.6077 25.1105 78.8777 25.3805 79.0757 25.7225C79.2737 26.0645 79.4177 26.4425 79.5077 26.8745C79.5977 27.3065 79.6337 27.7385 79.6337 28.2065V33.0845H81.2537V27.7025C81.2537 27.3425 81.2177 26.9465 81.1457 26.5145C81.0917 26.0825 80.9657 25.6685 80.8037 25.2725Z" fill="#04121A"/>
<path d="M89.7677 24.2285C89.5877 24.0485 89.4077 23.8865 89.2097 23.7425C88.5797 23.2925 87.8057 23.0765 86.8877 23.0765C85.9877 23.0765 85.2137 23.2925 84.5657 23.7425C83.9177 24.1925 83.4137 24.8045 83.0717 25.5785C82.7117 26.3525 82.5497 27.2345 82.5497 28.2065C82.5497 29.1785 82.7297 30.0605 83.0717 30.8345C83.4317 31.6085 83.9177 32.2205 84.5657 32.6885C85.2137 33.1385 85.9877 33.3725 86.9057 33.3725C87.8237 33.3725 88.5977 33.1385 89.2097 32.6885C89.4797 32.4905 89.7317 32.2565 89.9477 31.9865V33.1025H91.3877V20.1065H89.7677V24.2285ZM89.6417 30.0965C89.4437 30.6545 89.1197 31.0865 88.7057 31.4105C88.2917 31.7345 87.7517 31.8785 87.0857 31.8785C86.4557 31.8785 85.9157 31.7165 85.4837 31.3925C85.0517 31.0685 84.7457 30.6185 84.5297 30.0785C84.3137 29.5205 84.2057 28.8905 84.2057 28.2065C84.2057 27.5225 84.3137 26.8925 84.5117 26.3525C84.7277 25.7945 85.0337 25.3625 85.4657 25.0385C85.8977 24.7145 86.4377 24.5525 87.1037 24.5525C87.7337 24.5525 88.2737 24.7145 88.6877 25.0205C89.1017 25.3265 89.4077 25.7585 89.6057 26.3165C89.8037 26.8745 89.9117 27.5045 89.9117 28.2245C89.9477 28.9085 89.8397 29.5385 89.6417 30.0965Z" fill="#04121A"/>
<path d="M100.946 24.9665C100.676 24.3365 100.208 23.8505 99.5778 23.5445C98.9478 23.2205 98.1918 23.0765 97.2918 23.0765C96.1938 23.0765 95.3118 23.3285 94.6278 23.8145C93.9618 24.3005 93.4938 24.9665 93.2598 25.8305L94.7897 26.2985C94.9697 25.7045 95.2758 25.2725 95.7258 25.0025C96.1758 24.7325 96.6798 24.5885 97.2738 24.5885C98.1558 24.5885 98.7858 24.8045 99.1458 25.2185C99.4698 25.5965 99.6498 26.1545 99.6678 26.8745C99.3258 26.9285 98.9658 26.9645 98.5878 27.0185C97.9938 27.0905 97.4178 27.1805 96.8418 27.2705C96.2658 27.3605 95.7438 27.4685 95.2938 27.5945C94.8078 27.7385 94.3758 27.9365 94.0158 28.1885C93.6558 28.4405 93.3858 28.7465 93.1878 29.1245C92.9898 29.5025 92.8997 29.9345 92.8997 30.4565C92.8997 30.9785 93.0258 31.4645 93.2778 31.8965C93.5298 32.3285 93.8898 32.6885 94.3938 32.9585C94.8798 33.2285 95.4918 33.3545 96.2298 33.3545C97.1658 33.3545 97.9758 33.1565 98.6238 32.7605C99.1098 32.4725 99.5057 32.0765 99.8298 31.5725V33.0845H101.252V27.0545C101.252 26.6765 101.234 26.2985 101.198 25.9565C101.18 25.5965 101.09 25.2725 100.946 24.9665ZM99.5058 29.7545C99.4338 30.1505 99.2538 30.5285 99.0018 30.8705C98.7498 31.2125 98.4078 31.4825 97.9758 31.6985C97.5438 31.9145 97.0578 32.0045 96.4818 32.0045C96.0138 32.0045 95.6358 31.9325 95.3658 31.7705C95.0778 31.6265 94.8618 31.4285 94.7358 31.1765C94.5918 30.9425 94.5378 30.6905 94.5378 30.4205C94.5378 30.1145 94.6098 29.8625 94.7538 29.6645C94.8978 29.4485 95.0778 29.2865 95.3118 29.1425C95.5458 28.9985 95.7978 28.8905 96.0498 28.8185C96.4098 28.7105 96.8238 28.6205 97.2558 28.5485C97.7058 28.4765 98.1738 28.4045 98.6958 28.3325C99.0198 28.2965 99.3438 28.2425 99.6858 28.1885C99.6858 28.3505 99.6858 28.5125 99.6678 28.7285C99.6498 29.1245 99.5958 29.4485 99.5058 29.7545Z" fill="#04121A"/>
<path d="M105.662 20.6285H104.06V23.3285H102.08V24.6605H104.06V29.3945C104.06 29.8985 104.06 30.3485 104.078 30.7265C104.096 31.1225 104.204 31.5185 104.384 31.8965C104.6 32.3465 104.942 32.6705 105.374 32.8685C105.824 33.0845 106.31 33.1925 106.886 33.2105C107.444 33.2285 108.02 33.1745 108.596 33.0665V31.6805C107.93 31.7885 107.354 31.8065 106.886 31.7345C106.418 31.6625 106.076 31.4465 105.86 31.0505C105.752 30.8525 105.68 30.6005 105.68 30.3125C105.662 30.0245 105.662 29.6825 105.662 29.2865V24.6605H108.596V23.3285H105.662V20.6285Z" fill="#04121A"/>
<path d="M111.926 19.9445H110.324V21.6005H111.926V19.9445Z" fill="#04121A"/>
<path d="M111.926 23.3285H110.324V33.0845H111.926V23.3285Z" fill="#04121A"/>
<path d="M120.854 23.7245C120.152 23.2925 119.306 23.0585 118.334 23.0585C117.38 23.0585 116.552 23.2745 115.85 23.7065C115.148 24.1385 114.608 24.7325 114.212 25.5065C113.834 26.2805 113.636 27.1805 113.636 28.1885C113.636 29.1965 113.834 30.0965 114.212 30.8705C114.59 31.6445 115.13 32.2565 115.832 32.6885C116.534 33.1205 117.362 33.3545 118.334 33.3545C119.306 33.3545 120.134 33.1385 120.836 32.7065C121.538 32.2745 122.078 31.6625 122.456 30.8885C122.834 30.1145 123.032 29.2145 123.032 28.2065C123.032 27.1985 122.852 26.3165 122.474 25.5425C122.096 24.7685 121.556 24.1565 120.854 23.7245ZM120.584 30.8165C120.08 31.4825 119.342 31.8245 118.334 31.8245C117.362 31.8245 116.606 31.5005 116.102 30.8345C115.598 30.1685 115.346 29.2865 115.346 28.2065C115.346 27.5045 115.454 26.8745 115.67 26.3345C115.886 25.7945 116.21 25.3625 116.66 25.0565C117.092 24.7505 117.65 24.5885 118.334 24.5885C119.324 24.5885 120.08 24.9125 120.584 25.5785C121.088 26.2265 121.34 27.1085 121.34 28.2065C121.34 29.2685 121.088 30.1325 120.584 30.8165Z" fill="#04121A"/>
<path d="M133.04 26.5145C132.968 26.1005 132.86 25.6865 132.68 25.2725C132.518 24.8765 132.284 24.4985 131.978 24.1745C131.69 23.8505 131.312 23.5805 130.862 23.3825C130.412 23.1845 129.872 23.0765 129.242 23.0765C128.414 23.0765 127.676 23.2565 127.064 23.6165C126.65 23.8685 126.29 24.1925 126.002 24.5885V23.3285H124.562V33.0845H126.182V27.9545C126.182 27.3965 126.254 26.8925 126.38 26.4785C126.506 26.0645 126.686 25.7225 126.92 25.4345C127.154 25.1645 127.442 24.9485 127.766 24.8225C128.09 24.6785 128.468 24.6065 128.864 24.6065C129.386 24.6065 129.818 24.7145 130.142 24.9125C130.484 25.1105 130.754 25.3805 130.952 25.7225C131.15 26.0645 131.294 26.4425 131.384 26.8745C131.474 27.3065 131.51 27.7385 131.51 28.2065V33.0845H133.13V27.7025C133.148 27.3245 133.112 26.9285 133.04 26.5145Z" fill="#04121A"/>
<path d="M32.6192 28.4958C34.7216 25.5744 35.9726 21.9978 35.9996 18.126C36.0698 8.18457 28.067 0.0701701 18.1256 -2.99497e-05C8.18423 -0.07023 0.069832 7.93257 0.00143199 17.874C-0.025568 21.807 1.21283 25.4502 3.33323 28.4256C3.85703 29.1618 4.43483 29.8566 5.05943 30.5046C8.30303 33.8616 12.839 35.964 17.8754 35.9982C23.5148 36.0378 28.5638 33.4782 31.892 29.4426C32.144 29.1366 32.387 28.8216 32.6192 28.4958Z" fill="white"/>
<path d="M15.4418 4.48557C17.7476 2.90517 20.921 3.76377 22.1162 6.29097L32.6192 28.4976C34.7216 25.5762 35.9726 21.9996 35.9996 18.1278C36.0698 8.18457 28.067 0.0701701 18.1256 -2.99497e-05C8.18423 -0.07023 0.069832 7.93257 0.00143199 17.874C-0.025568 21.807 1.21283 25.4502 3.33323 28.4256L3.75443 28.3338L10.6088 26.8218C10.8014 26.7786 10.904 27.0396 10.7348 27.1404L5.05943 30.5046C8.30303 33.8616 12.839 35.964 17.8754 35.9982C23.5148 36.0378 28.5638 33.4782 31.892 29.4426L14.7146 11.3598C12.7904 9.33297 13.1342 6.06597 15.4418 4.48557ZM18.6656 24.8976L7.60643 25.857C6.40943 25.9614 5.40323 24.9696 5.48963 23.769C5.57603 22.5702 6.71543 21.7332 7.88543 22.0086L18.6908 24.5538C18.8834 24.6006 18.8618 24.8796 18.6656 24.8976ZM13.5464 15.1722L26.9564 26.0208C27.1094 26.145 26.9708 26.388 26.7854 26.3178L10.6556 20.205C8.96363 19.5642 8.24903 17.5626 9.14903 15.993C10.0508 14.4252 12.1406 14.0346 13.5464 15.1722Z" fill="#FF7800"/>
</g>
<defs>
<clipPath id="clip0">
<rect width="134" height="36" fill="white" transform="translate(0.000999451)"/>
</clipPath>
</defs>
</svg>
