<svg xmlns="http://www.w3.org/2000/svg" xmlns:xlink="http://www.w3.org/1999/xlink" viewBox="0 0 283.46 283.46"><defs><linearGradient id="a" x1="-452.39" y1="-279.04" x2="-452.08" y2="-279.04" gradientTransform="matrix(0, 312, 312, 0, 87203.14, 141239.14)" gradientUnits="userSpaceOnUse"><stop offset="0" stop-color="#3f81be"/><stop offset="0.1" stop-color="#3f81be"/><stop offset="1" stop-color="#283775"/></linearGradient></defs><rect x="3.82" y="94.51" width="275.82" height="94.44" rx="8.78" style="fill:url(#a)"/><path d="M100.32,109.84a6.45,6.45,0,0,0-4.73-2h-67a6.69,6.69,0,0,0-6.69,6.69v45.54a6.71,6.71,0,0,0,6.69,6.7H51.39a8.64,8.64,0,0,1-.67,3.26A26.6,26.6,0,0,1,49.38,173a4.74,4.74,0,0,0-.67,1.84,2.72,2.72,0,0,0,2.68,2.68H72.82a2.7,2.7,0,0,0,2.68-2.68,4.78,4.78,0,0,0-.67-1.82,30.65,30.65,0,0,1-1.34-3,9,9,0,0,1-.67-3.24H95.59a6.73,6.73,0,0,0,6.7-6.7V114.57A6.47,6.47,0,0,0,100.32,109.84ZM96.93,149.4a1.28,1.28,0,0,1-.4.94,1.3,1.3,0,0,1-.94.4h-67a1.37,1.37,0,0,1-1.34-1.34V114.57a1.37,1.37,0,0,1,1.34-1.34h67a1.3,1.3,0,0,1,.94.4,1.28,1.28,0,0,1,.4.94V149.4Z" style="fill:#fff"/><path d="M117.55,112.25h9.38a9.07,9.07,0,0,1,3.69.65,6,6,0,0,1,2.2,1.64,5.56,5.56,0,0,1,1.05,2.14,9.12,9.12,0,0,1,.29,2.15,8.82,8.82,0,0,1-.29,2.12,5.45,5.45,0,0,1-1.05,2.13,5.62,5.62,0,0,1-2.2,1.62,9.08,9.08,0,0,1-3.69.64h-5.66v8.16h-3.72Zm3.72,10.06h5.45a4.88,4.88,0,0,0,1.28-.18,3.7,3.7,0,0,0,1.2-.58,2.92,2.92,0,0,0,.89-1.07,3.67,3.67,0,0,0,.35-1.68,4.33,4.33,0,0,0-.3-1.73,2.84,2.84,0,0,0-.8-1.09,3,3,0,0,0-1.17-.55,6.18,6.18,0,0,0-1.39-.14h-5.51Z" style="fill:#fff"/><path d="M146.45,111.74a9.8,9.8,0,0,1,4.27.9,9.36,9.36,0,0,1,3.2,2.41,10.8,10.8,0,0,1,2,3.54,13.56,13.56,0,0,1,0,8.6,10.8,10.8,0,0,1-2,3.54,9.46,9.46,0,0,1-3.2,2.4,10.8,10.8,0,0,1-8.54,0,9.46,9.46,0,0,1-3.2-2.4,10.8,10.8,0,0,1-2-3.54,13.56,13.56,0,0,1,0-8.6,10.8,10.8,0,0,1,2-3.54,9.36,9.36,0,0,1,3.2-2.41A9.8,9.8,0,0,1,146.45,111.74Zm0,3a6,6,0,0,0-2.93.68,5.71,5.71,0,0,0-2,1.83,8.33,8.33,0,0,0-1.15,2.61,12.15,12.15,0,0,0,0,5.95,8.18,8.18,0,0,0,1.15,2.6,5.65,5.65,0,0,0,2,1.84,6.65,6.65,0,0,0,5.86,0,5.82,5.82,0,0,0,2-1.84,8.18,8.18,0,0,0,1.15-2.6,12.15,12.15,0,0,0,0-5.95,8.33,8.33,0,0,0-1.15-2.61,5.89,5.89,0,0,0-2-1.83A6,6,0,0,0,146.45,114.78Z" style="fill:#fff"/><path d="M174.37,119a7.43,7.43,0,0,0-.66-1.69,4.65,4.65,0,0,0-1.07-1.34,4.82,4.82,0,0,0-1.53-.88,6.08,6.08,0,0,0-2-.31,6,6,0,0,0-2.93.68,5.71,5.71,0,0,0-2,1.83A8.33,8.33,0,0,0,163,119.9a12.15,12.15,0,0,0,0,5.95,8.18,8.18,0,0,0,1.15,2.6,5.65,5.65,0,0,0,2,1.84,6,6,0,0,0,2.93.68,5.24,5.24,0,0,0,2.2-.43,5,5,0,0,0,1.64-1.19,5.86,5.86,0,0,0,1.07-1.77,8.47,8.47,0,0,0,.51-2.18h3.63a10.32,10.32,0,0,1-.82,3.49,8.34,8.34,0,0,1-4.69,4.49,9.61,9.61,0,0,1-3.54.63,10.09,10.09,0,0,1-4.27-.88,9.46,9.46,0,0,1-3.2-2.4,10.63,10.63,0,0,1-2-3.54,13.56,13.56,0,0,1,0-8.6,10.63,10.63,0,0,1,2-3.54,9.36,9.36,0,0,1,3.2-2.41,9.8,9.8,0,0,1,4.27-.9,11.47,11.47,0,0,1,3.36.49,8.82,8.82,0,0,1,2.78,1.43,7.36,7.36,0,0,1,1.95,2.28,7.84,7.84,0,0,1,.93,3.06Zm-3.72-8.8h-3.31l-3.18-4.26h2.74l2.08,2.65,2.11-2.65h2.77Z" style="fill:#fff"/><path d="M181.51,112.25h3.72V133.5h-3.72Zm2.71-6.31h4L184,110.2h-2.47Z" style="fill:#fff"/><path d="M187.76,112.25H205v3.21H198.2v18h-3.72v-18h-6.72Z" style="fill:#fff"/><path d="M210.38,112.25h4l8.18,21.25h-4l-2-5.63h-8.48l-2,5.63h-3.84Zm-1.31,12.8h6.49l-3.19-9.14h-.09Z" style="fill:#fff"/><path d="M238.89,119a7.43,7.43,0,0,0-.66-1.69,4.49,4.49,0,0,0-1.07-1.34,4.71,4.71,0,0,0-1.53-.88,6.74,6.74,0,0,0-5,.37,5.89,5.89,0,0,0-2,1.83,8.09,8.09,0,0,0-1.14,2.61,11.84,11.84,0,0,0,0,5.95,7.94,7.94,0,0,0,1.14,2.6,5.82,5.82,0,0,0,2,1.84,6,6,0,0,0,2.93.68,5.2,5.2,0,0,0,2.2-.43,5,5,0,0,0,1.64-1.19,5.66,5.66,0,0,0,1.07-1.77,8.47,8.47,0,0,0,.51-2.18h3.63a10.09,10.09,0,0,1-.82,3.49,8.34,8.34,0,0,1-4.69,4.49,9.61,9.61,0,0,1-3.54.63,10.09,10.09,0,0,1-4.27-.88,9.46,9.46,0,0,1-3.2-2.4,10.8,10.8,0,0,1-2-3.54,13.56,13.56,0,0,1,0-8.6,10.8,10.8,0,0,1,2-3.54,9.36,9.36,0,0,1,3.2-2.41,9.8,9.8,0,0,1,4.27-.9,11.47,11.47,0,0,1,3.36.49,8.87,8.87,0,0,1,2.79,1.43,7.63,7.63,0,0,1,1.95,2.28,8,8,0,0,1,.92,3.06Zm-3.72-8.8h-3.3l-3.19-4.26h2.74l2.08,2.65,2.12-2.65h2.76Z" style="fill:#fff"/><path d="M246,112.25h15.3v3.21H249.75V121h10.72v3H249.75v6.23h11.79v3.21H246Z" style="fill:#fff"/><path d="M124.77,142.91q4.88.12,7.34,2.74t2.47,7.94q0,5.32-2.47,7.95t-7.34,2.73h-7.39V142.91Zm-1,19.63a13.88,13.88,0,0,0,4-.5,6.06,6.06,0,0,0,4.33-4.35,16.74,16.74,0,0,0,0-8.2,6.5,6.5,0,0,0-1.59-2.78,6.34,6.34,0,0,0-2.74-1.57,13.88,13.88,0,0,0-4-.5h-4.34v17.9Z" style="fill:#fff"/><path d="M165.28,142.91v1.73H152.57v7.72h11.9v1.74h-11.9v8.44h12.86v1.73h-14.9V142.91Zm-9.39-6.17,2.57,3.06,2.63-3.06h1.74L159.42,141h-2.07L154,136.74Z" style="fill:#fff"/><path d="M195.56,142.91v1.73h-7.45v19.63h-2V144.64h-7.41v-1.73Z" style="fill:#fff"/><path d="M225,142.91v1.73H212.26v7.72h11.9v1.74h-11.9v8.44h12.86v1.73h-14.9V142.91Z" style="fill:#fff"/><path d="M243.55,142.91l7.09,18.73L258,142.91h3v21.36h-2V145.81h-.06l-7.3,18.46h-1.91l-7-18.46h-.07v18.46h-2V142.91Z" style="fill:#fff"/></svg>